<svg width="24" height="24" viewBox="0 0 24 24" fill="none" xmlns="http://www.w3.org/2000/svg">
<g clip-path="url(#clip0_278_120)">
<path d="M24 12C24 5.37258 18.6274 0 12 0C5.37258 0 0 5.37258 0 12C0 18.6274 5.37258 24 12 24C18.6274 24 24 18.6274 24 12Z" fill="#7E8FE7"/>
<path d="M6.75 15.75C7.78553 15.75 8.625 14.9105 8.625 13.875C8.625 12.8395 7.78553 12 6.75 12C5.71447 12 4.875 12.8395 4.875 13.875C4.875 14.9105 5.71447 15.75 6.75 15.75Z" fill="#836055"/>
<path d="M6.75 15.375H13.125V24.7013C13.125 24.7013 11.7589 25.5 9.9375 25.5C8.11613 25.5 6.75 24.1961 6.75 24.1961V15.375Z" fill="#836055"/>
<path d="M13.125 20.2005C13.125 22.3208 11.8125 22.5 10.6436 22.1198C9.47512 21.7403 7.125 18.4328 7.125 16.3125C7.125 14.1923 7.419 14.25 9.15488 14.25C14.0625 14.4375 13.125 18.0803 13.125 20.2005Z" fill="#553329"/>
<path d="M17.2072 13.5375C17.2072 16.8832 15.7492 20.625 13.3117 21.1875C9.74916 20.8125 6.53541 16.8832 6.53541 13.5375C5.62491 9.5625 5.81241 4.875 11.9999 4.875C18.1874 4.875 17.2072 10.1914 17.2072 13.5375V13.5375Z" fill="#836055"/>
<path d="M14.25 15.375H13.875C13.6679 15.375 13.5 15.5429 13.5 15.75C13.5 15.9571 13.6679 16.125 13.875 16.125H14.25C14.4571 16.125 14.625 15.9571 14.625 15.75C14.625 15.5429 14.4571 15.375 14.25 15.375Z" fill="#68463C"/>
<path d="M14.25 22.5H6C4.13604 22.5 2.625 24.011 2.625 25.875V27.75C2.625 29.614 4.13604 31.125 6 31.125H14.25C16.114 31.125 17.625 29.614 17.625 27.75V25.875C17.625 24.011 16.114 22.5 14.25 22.5Z" fill="#E05A33"/>
<path d="M-0.000439078 3.74924C2.99844 0.750739 4.87494 4.87461 4.87494 4.87461L4.12419 7.87461C4.12419 7.87461 3.37419 8.81211 4.12419 11.6246C4.87419 14.4371 3.18669 15.9371 3.18669 15.9371C3.18669 15.9371 1.87419 16.875 0.749186 16.125C-0.375814 15.375 -0.524689 14.6542 -0.375814 13.3125C-0.188314 11.625 0.374186 12.1867 0.374186 10.4992C0.374186 8.81174 -2.99969 6.74774 -0.00081405 3.74924H-0.000439078Z" fill="#1B0B47"/>
<path d="M4.88618 4.94287L6.95168 5.83612L5.61218 8.93362L3.54706 8.04112C3.54706 8.04112 3.18706 7.3125 3.74956 6.18787C4.31093 5.06287 4.88656 4.94287 4.88656 4.94287H4.88618Z" fill="#FF6C98"/>
<path fill-rule="evenodd" clip-rule="evenodd" d="M6.7499 15.375L6.25377 12.0664C5.81564 12.1861 5.43588 12.4609 5.18506 12.8396C4.93423 13.2183 4.82939 13.6751 4.89002 14.1253C4.95065 14.5754 5.17262 14.9883 5.51469 15.2871C5.85677 15.5859 6.29569 15.7504 6.7499 15.75V18.8625C6.15547 18.3351 5.63983 17.7252 5.21877 17.0512C4.58127 16.0372 4.13577 14.8747 3.91302 13.6414C3.6904 12.4046 3.69549 11.1376 3.92802 9.90262C4.16052 8.67149 4.6154 7.51387 5.26152 6.50699C5.90727 5.50049 6.72965 4.66837 7.67278 4.06724C8.61553 3.46574 9.65728 3.10912 10.7279 3.02137C10.9609 3.0023 11.1947 2.99604 11.4284 3.00262C12.4258 2.97623 13.4188 3.14502 14.3515 3.49949C15.2159 3.82949 16.0015 4.31287 16.663 4.92224C17.3164 5.52022 17.8419 6.24442 18.2077 7.05112C18.4858 7.66788 18.6602 8.32638 18.7237 8.99999H18.7499V10.6072C18.7499 10.6072 18.6265 10.6642 18.3757 10.7445V13.9275C18.3757 13.9275 18.3757 14.454 17.8132 14.8485C17.6182 14.9854 17.3564 15.0904 17.0969 15.1695C17.1704 14.6285 17.2076 14.0831 17.2083 13.5371C17.2083 13.1494 17.2214 12.735 17.2349 12.3056C17.2484 11.8864 17.2623 11.4525 17.2649 11.0152C16.5704 11.1424 15.6273 11.25 14.4232 11.25C11.4802 11.25 9.7499 10.6072 9.7499 10.6072V10.2326C9.4949 10.6316 9.2189 11.1139 8.9999 11.625C8.71865 12.2812 8.71865 12.954 8.71865 13.5191C8.71865 14.0846 8.71865 14.5429 8.4374 14.7697C7.8749 15.2235 6.7499 15.375 6.7499 15.375Z" fill="#1B0B47"/>
<path d="M12.375 14.0625C12.375 13.7518 12.1232 13.5 11.8125 13.5C11.5018 13.5 11.25 13.7518 11.25 14.0625V14.4375C11.25 14.7482 11.5018 15 11.8125 15C12.1232 15 12.375 14.7482 12.375 14.4375V14.0625Z" fill="#1B0B47"/>
<path d="M16.125 14.0625C16.125 13.7518 15.8732 13.5 15.5625 13.5C15.2518 13.5 15 13.7518 15 14.0625V14.4375C15 14.7482 15.2518 15 15.5625 15C15.8732 15 16.125 14.7482 16.125 14.4375V14.0625Z" fill="#1B0B47"/>
<path d="M10.3125 14.625H9.5625C9.25184 14.625 9 14.8768 9 15.1875C9 15.4982 9.25184 15.75 9.5625 15.75H10.3125C10.6232 15.75 10.875 15.4982 10.875 15.1875C10.875 14.8768 10.6232 14.625 10.3125 14.625Z" fill="#FF859B"/>
<path d="M17.0625 14.625H16.6875C16.3768 14.625 16.125 14.8768 16.125 15.1875C16.125 15.4982 16.3768 15.75 16.6875 15.75H17.0625C17.3732 15.75 17.625 15.4982 17.625 15.1875C17.625 14.8768 17.3732 14.625 17.0625 14.625Z" fill="#FF859B"/>
</g>
<defs>
<clipPath id="clip0_278_120">
<rect width="24" height="24" rx="12" fill="white"/>
</clipPath>
</defs>
</svg>
