<svg width="24" height="24" viewBox="0 0 24 24" fill="none" xmlns="http://www.w3.org/2000/svg">
<g clip-path="url(#clip0_278_75)">
<path d="M24 12C24 5.37258 18.6274 0 12 0C5.37258 0 0 5.37258 0 12C0 18.6274 5.37258 24 12 24C18.6274 24 24 18.6274 24 12Z" fill="#7E8FE7"/>
<path d="M6.75 15.75C7.78553 15.75 8.625 14.9105 8.625 13.875C8.625 12.8395 7.78553 12 6.75 12C5.71447 12 4.875 12.8395 4.875 13.875C4.875 14.9105 5.71447 15.75 6.75 15.75Z" fill="#68463C"/>
<path d="M6.75 15.375H13.125V24.7013C13.125 24.7013 11.7589 25.5 9.9375 25.5C8.11613 25.5 6.75 24.1961 6.75 24.1961V15.375Z" fill="#68463C"/>
<path d="M13.1251 20.2005C13.1251 22.3207 12.7943 22.1197 10.6437 22.1197C8.4931 22.1197 7.50085 20.4011 7.50085 18.2809C7.50085 16.1606 7.4191 14.25 9.1546 14.25C14.0626 14.4375 13.1251 18.0802 13.1251 20.2005Z" fill="#553329"/>
<path d="M17.2072 13.5375C17.2072 16.8832 18.5894 20.9974 12.5624 20.9974C6.53541 20.9974 6.53541 16.8832 6.53541 13.5375C5.62491 9.5625 5.81241 4.875 11.9999 4.875C18.1874 4.875 17.2072 10.1914 17.2072 13.5375V13.5375Z" fill="#836055"/>
<path d="M14.25 15.375H13.875C13.6679 15.375 13.5 15.5429 13.5 15.75C13.5 15.9571 13.6679 16.125 13.875 16.125H14.25C14.4571 16.125 14.625 15.9571 14.625 15.75C14.625 15.5429 14.4571 15.375 14.25 15.375Z" fill="#68463C"/>
<path d="M14.25 22.5H6C4.13604 22.5 2.625 24.011 2.625 25.875V27.75C2.625 29.614 4.13604 31.125 6 31.125H14.25C16.114 31.125 17.625 29.614 17.625 27.75V25.875C17.625 24.011 16.114 22.5 14.25 22.5Z" fill="#E05A33"/>
<path d="M7.7524 10.5825V12.8396C7.7524 13.125 7.50003 13.5 7.31253 13.6875C7.12503 13.875 6.56253 14.25 6.24378 14.25C5.92578 14.25 4.91665 14.0809 4.43403 13.4036C3.9514 12.7268 4.09915 9.15788 4.43403 8.32613C4.76853 7.49438 6.00265 5.74313 7.75278 4.40663C9.02028 3.43838 10.6272 2.63776 12.5794 2.40226C21.9319 1.27351 18.4568 7.86976 17.25 9.56251C15.1875 8.81251 13.6875 8.62501 10.9812 8.99326C8.27478 9.36188 7.97515 9.73651 7.7524 10.5829V10.5825Z" fill="#1B0B47"/>
<path d="M10.8484 17.25C10.8484 17.1505 10.8879 17.0552 10.9582 16.9848C11.0285 16.9145 11.1239 16.875 11.2234 16.875H14.652C14.7515 16.875 14.8469 16.9145 14.9172 16.9848C14.9875 17.0552 15.027 17.1505 15.027 17.25C15.027 17.7473 14.8295 18.2242 14.4778 18.5758C14.1262 18.9275 13.6493 19.125 13.152 19.125H12.7234C12.2261 19.125 11.7492 18.9275 11.3976 18.5758C11.0459 18.2242 10.8484 17.7473 10.8484 17.25V17.25Z" fill="#66253C"/>
<path fill-rule="evenodd" clip-rule="evenodd" d="M13.7831 19.0163C13.5805 19.0885 13.367 19.1253 13.152 19.125H12.7234C12.2391 19.125 11.7735 18.9376 11.4243 18.6021C11.0751 18.2666 10.8692 17.8089 10.8499 17.325C11.1364 17.2178 11.5616 17.2301 11.9812 17.2425C12.1147 17.2463 12.2475 17.25 12.375 17.25C13.2037 17.25 13.875 17.8376 13.875 18.5625C13.875 18.7219 13.8424 18.8749 13.7831 19.0163V19.0163Z" fill="#B03E67"/>
<path d="M11.25 16.875H15V17.25C15 17.3495 14.9605 17.4448 14.8902 17.5152C14.8198 17.5855 14.7245 17.625 14.625 17.625H11.625C11.5255 17.625 11.4302 17.5855 11.3598 17.5152C11.2895 17.4448 11.25 17.3495 11.25 17.25V16.875Z" fill="white"/>
<path d="M12 16.9875C12 16.9577 12.0119 16.929 12.033 16.908C12.054 16.8869 12.0827 16.875 12.1125 16.875H12.6375C12.6673 16.875 12.696 16.8869 12.717 16.908C12.7381 16.929 12.75 16.9577 12.75 16.9875V17.8875C12.75 17.9173 12.7381 17.946 12.717 17.967C12.696 17.9881 12.6673 18 12.6375 18H12.1125C12.0827 18 12.054 17.9881 12.033 17.967C12.0119 17.946 12 17.9173 12 17.8875V16.9875V16.9875Z" fill="#B03E67"/>
<path d="M11.25 14.0625C11.25 13.9133 11.3093 13.7702 11.4148 13.6648C11.5202 13.5593 11.6633 13.5 11.8125 13.5C11.9617 13.5 12.1048 13.5593 12.2102 13.6648C12.3157 13.7702 12.375 13.9133 12.375 14.0625V14.5226C12.375 14.5789 12.3293 14.625 12.2726 14.625H11.3524C11.3252 14.625 11.2992 14.6142 11.28 14.595C11.2608 14.5758 11.25 14.5498 11.25 14.5226V14.0625V14.0625ZM15 14.0625C15 13.9133 15.0593 13.7702 15.1648 13.6648C15.2702 13.5593 15.4133 13.5 15.5625 13.5C15.7117 13.5 15.8548 13.5593 15.9602 13.6648C16.0657 13.7702 16.125 13.9133 16.125 14.0625V14.5226C16.125 14.5789 16.0793 14.625 16.0226 14.625H15.1024C15.0752 14.625 15.0492 14.6142 15.03 14.595C15.0108 14.5758 15 14.5498 15 14.5226V14.0625V14.0625Z" fill="#1B0B47"/>
<path d="M11.3509 15.2017C12.235 15.2017 12.9517 14.485 12.9517 13.6009C12.9517 12.7167 12.235 12 11.3509 12C10.4667 12 9.75 12.7167 9.75 13.6009C9.75 14.485 10.4667 15.2017 11.3509 15.2017Z" stroke="white" stroke-width="2"/>
<path d="M16.6009 15.2017C17.485 15.2017 18.2017 14.485 18.2017 13.6009C18.2017 12.7167 17.485 12 16.6009 12C15.7167 12 15 12.7167 15 13.6009C15 14.485 15.7167 15.2017 16.6009 15.2017Z" stroke="white" stroke-width="2"/>
<path d="M12.7444 13.164L15.3694 13.125" stroke="white" stroke-width="2"/>
<path d="M10.5 17.25C10.5 16.9516 10.6185 16.6655 10.8295 16.4545C11.0405 16.2435 11.3266 16.125 11.625 16.125H15C15.2984 16.125 15.5845 16.2435 15.7955 16.4545C16.0065 16.6655 16.125 16.9516 16.125 17.25H10.5Z" fill="#1B0B47"/>
</g>
<defs>
<clipPath id="clip0_278_75">
<rect width="24" height="24" rx="12" fill="white"/>
</clipPath>
</defs>
</svg>
