<svg width="24" height="24" viewBox="0 0 24 24" fill="none" xmlns="http://www.w3.org/2000/svg">
<g clip-path="url(#clip0_278_158)">
<path d="M24 12C24 5.37258 18.6274 0 12 0C5.37258 0 0 5.37258 0 12C0 18.6274 5.37258 24 12 24C18.6274 24 24 18.6274 24 12Z" fill="#7E8FE7"/>
<path d="M6.75 15.75C7.78553 15.75 8.625 14.9105 8.625 13.875C8.625 12.8395 7.78553 12 6.75 12C5.71447 12 4.875 12.8395 4.875 13.875C4.875 14.9105 5.71447 15.75 6.75 15.75Z" fill="#EAC0B3"/>
<path d="M6.75 15.375H13.125V24.7013C13.125 24.7013 11.7589 25.5 9.9375 25.5C8.11613 25.5 6.75 24.1961 6.75 24.1961V15.375Z" fill="#EAC0B3"/>
<path d="M13.0542 19.917C13.0542 21.9364 12.728 21.7451 10.6043 21.7451C8.48071 21.7451 7.50084 20.1082 7.50084 18.0889C7.50084 16.0699 7.42022 14.25 9.13397 14.25C13.9801 14.4285 13.0542 17.8976 13.0542 19.917Z" fill="#C99688"/>
<path d="M17.2072 13.5375C17.2072 16.8832 16.6874 20.9974 12.5624 20.9974C8.43741 20.9974 6.53541 16.8832 6.53541 13.5375C5.62491 9.5625 5.81241 4.875 11.9999 4.875C18.1874 4.875 17.2072 10.1914 17.2072 13.5375V13.5375Z" fill="#F5D0C5"/>
<path d="M14.25 15.375H13.875C13.6679 15.375 13.5 15.5429 13.5 15.75C13.5 15.9571 13.6679 16.125 13.875 16.125H14.25C14.4571 16.125 14.625 15.9571 14.625 15.75C14.625 15.5429 14.4571 15.375 14.25 15.375Z" fill="#EAC0B3"/>
<path d="M14.25 22.5H6C4.13604 22.5 2.625 24.011 2.625 25.875V27.75C2.625 29.614 4.13604 31.125 6 31.125H14.25C16.114 31.125 17.625 29.614 17.625 27.75V25.875C17.625 24.011 16.114 22.5 14.25 22.5Z" fill="#E05A33"/>
<path fill-rule="evenodd" clip-rule="evenodd" d="M10.8619 9.82537C12.9657 10.524 15.8828 11.4922 18.9376 8.4375C20.4376 6.9375 13.6876 0.5625 8.25006 4.125C4.00019 4.75462 4.24281 7.30125 4.43031 9.26625C4.46631 9.64237 4.50006 9.99675 4.50006 10.3125C4.50006 10.5124 4.52631 10.662 4.57506 10.7692C4.52457 11.1775 4.49952 11.5886 4.50006 12C4.50006 12.3978 4.6581 12.7794 4.9394 13.0607C5.2207 13.342 5.60224 13.5 6.00006 13.5C6.39789 13.5 6.77942 13.342 7.06072 13.0607C7.34203 12.7794 7.50006 12.3978 7.50006 12C7.72907 12 7.95504 11.9476 8.16066 11.8468C8.36628 11.746 8.54609 11.5994 8.68629 11.4183C8.82649 11.2373 8.92338 11.0265 8.96951 10.8022C9.01564 10.5779 9.0098 10.346 8.95244 10.1242L9.00006 10.125C9.45906 10.125 9.86969 9.91875 10.1449 9.59437C10.3714 9.66262 10.6111 9.74212 10.8619 9.82537Z" fill="#1B0B47"/>
<path d="M11.3509 15.2017C12.235 15.2017 12.9517 14.485 12.9517 13.6009C12.9517 12.7167 12.235 12 11.3509 12C10.4667 12 9.75 12.7167 9.75 13.6009C9.75 14.485 10.4667 15.2017 11.3509 15.2017Z" stroke="black" stroke-width="2"/>
<path d="M16.6009 15.2017C17.485 15.2017 18.2017 14.485 18.2017 13.6009C18.2017 12.7167 17.485 12 16.6009 12C15.7167 12 15 12.7167 15 13.6009C15 14.485 15.7167 15.2017 16.6009 15.2017Z" stroke="black" stroke-width="2"/>
<path d="M12.7444 13.164L15.3694 13.125" stroke="black" stroke-width="2"/>
<path d="M10.5 17.25C10.5 16.9516 10.6185 16.6655 10.8295 16.4545C11.0405 16.2435 11.3266 16.125 11.625 16.125H15C15.2984 16.125 15.5845 16.2435 15.7955 16.4545C16.0065 16.6655 16.125 16.9516 16.125 17.25H10.5Z" fill="#1B0B47"/>
</g>
<defs>
<clipPath id="clip0_278_158">
<rect width="24" height="24" rx="12" fill="white"/>
</clipPath>
</defs>
</svg>
