<svg width="24" height="24" viewBox="0 0 24 24" fill="none" xmlns="http://www.w3.org/2000/svg">
<g clip-path="url(#clip0_278_7)">
<path d="M24 12C24 5.37258 18.6274 0 12 0C5.37258 0 0 5.37258 0 12C0 18.6274 5.37258 24 12 24C18.6274 24 24 18.6274 24 12Z" fill="#7E8FE7"/>
<path d="M6.75 15.75C7.78553 15.75 8.625 14.9105 8.625 13.875C8.625 12.8395 7.78553 12 6.75 12C5.71447 12 4.875 12.8395 4.875 13.875C4.875 14.9105 5.71447 15.75 6.75 15.75Z" fill="#F0BD70"/>
<path d="M6.75 15.375H13.125V24.7013C13.125 24.7013 11.7589 25.5 9.9375 25.5C8.11613 25.5 6.75 24.1961 6.75 24.1961V15.375Z" fill="#F0BD70"/>
<path d="M13.1251 20.2005C13.1251 22.3207 12.7943 22.1197 10.6437 22.1197C8.4931 22.1197 7.50085 20.4011 7.50085 18.2809C7.50085 16.1606 7.4191 14.25 9.1546 14.25C14.0626 14.4375 13.1251 18.0802 13.1251 20.2005Z" fill="#E9B05B"/>
<path d="M17.2072 13.5375C17.2072 16.8832 18.5894 20.9974 12.5624 20.9974C6.53541 20.9974 6.53541 16.8832 6.53541 13.5375C5.62491 9.5625 5.81241 4.875 11.9999 4.875C18.1874 4.875 17.2072 10.1914 17.2072 13.5375V13.5375Z" fill="#FFCB7E"/>
<path d="M14.25 15.375H13.875C13.6679 15.375 13.5 15.5429 13.5 15.75C13.5 15.9571 13.6679 16.125 13.875 16.125H14.25C14.4571 16.125 14.625 15.9571 14.625 15.75C14.625 15.5429 14.4571 15.375 14.25 15.375Z" fill="#F0BD70"/>
<path d="M14.25 22.5H6C4.13604 22.5 2.625 24.011 2.625 25.875V27.75C2.625 29.614 4.13604 31.125 6 31.125H14.25C16.114 31.125 17.625 29.614 17.625 27.75V25.875C17.625 24.011 16.114 22.5 14.25 22.5Z" fill="#E05A33"/>
<path fill-rule="evenodd" clip-rule="evenodd" d="M17.2381 12.1811C17.5493 12.0054 17.7876 11.7244 17.91 11.3886C18.0324 11.0528 18.0308 10.6843 17.9056 10.3496C18.2479 10.1846 18.5148 9.89575 18.6524 9.54151C18.79 9.18726 18.788 8.794 18.6468 8.44117C18.5057 8.08834 18.2358 7.80225 17.8918 7.6407C17.5479 7.47915 17.1554 7.45418 16.7937 7.57084C17.3251 8.94859 17.2861 10.6526 17.2381 12.1811Z" fill="#47280B"/>
<path fill-rule="evenodd" clip-rule="evenodd" d="M13.6114 8.53502C13.2696 8.83543 12.83 9.00078 12.375 9.00002C11.96 9.00069 11.5567 8.86306 11.2286 8.60889C10.9852 8.85222 10.6962 9.04514 10.3781 9.1766C10.0601 9.30807 9.71917 9.37549 9.375 9.37502C9.11514 9.37519 8.8567 9.33677 8.60813 9.26102C8.51038 9.36799 8.39772 9.46032 8.27363 9.53514C8.42125 9.7108 8.52661 9.91799 8.5816 10.1408C8.63658 10.3635 8.63973 10.5959 8.59079 10.8201C8.54186 11.0443 8.44214 11.2542 8.29933 11.4338C8.15651 11.6134 7.9744 11.7579 7.767 11.856C7.8289 11.9408 7.86583 12.0412 7.87362 12.1459C7.88142 12.2506 7.85976 12.3554 7.81111 12.4484C7.76245 12.5414 7.68874 12.619 7.5983 12.6723C7.50787 12.7256 7.40432 12.7525 7.29938 12.75C7.11554 13.0699 6.82028 13.3108 6.47003 13.4267C6.11978 13.5425 5.7391 13.5253 5.40078 13.3782C5.06245 13.2311 4.79019 12.9645 4.63606 12.6293C4.48192 12.2941 4.45671 11.9139 4.56525 11.5613C4.42551 11.4221 4.31467 11.2568 4.23912 11.0746C4.16356 10.8925 4.12478 10.6972 4.125 10.5C4.125 10.0853 4.29338 9.70989 4.56525 9.43877C4.49282 9.20188 4.48019 8.95073 4.52848 8.70777C4.57677 8.4648 4.68449 8.23758 4.842 8.04639C4.64692 7.70264 4.53195 7.31929 4.50565 6.92492C4.47936 6.53054 4.54243 6.13532 4.69015 5.76871C4.83788 5.40211 5.06645 5.07358 5.35882 4.80761C5.6512 4.54164 5.99984 4.3451 6.37875 4.23264C6.35926 3.96314 6.41293 3.69338 6.53409 3.45187C6.65524 3.21035 6.83939 3.00604 7.06706 2.86053C7.29474 2.71502 7.55749 2.63371 7.82756 2.6252C8.09763 2.61668 8.36498 2.68127 8.60138 2.81214C8.83175 2.41304 9.16318 2.08165 9.5623 1.85131C9.96143 1.62097 10.4142 1.49981 10.875 1.50002C11.3899 1.50002 11.8703 1.64814 12.2756 1.90464C12.5541 1.60469 12.9036 1.37965 13.2918 1.25027C13.6801 1.12089 14.0948 1.09134 14.4975 1.16434C14.9002 1.23734 15.2781 1.41053 15.5962 1.66797C15.9144 1.9254 16.1627 2.25878 16.3181 2.63739C16.5165 2.66311 16.7077 2.72824 16.8806 2.82897C17.0534 2.92969 17.2044 3.06397 17.3245 3.2239C17.4447 3.38383 17.5316 3.56618 17.5803 3.76022C17.6289 3.95426 17.6383 4.15607 17.6078 4.35377C18.3034 4.86902 18.75 5.66702 18.75 6.56252C18.75 8.11577 17.4068 9.37502 15.75 9.37502C14.9126 9.37502 14.1555 9.05327 13.6114 8.53502V8.53502Z" fill="#47280B"/>
<path d="M10.8484 17.25C10.8484 17.1505 10.8879 17.0552 10.9582 16.9848C11.0285 16.9145 11.1239 16.875 11.2234 16.875H14.652C14.7515 16.875 14.8469 16.9145 14.9172 16.9848C14.9875 17.0552 15.027 17.1505 15.027 17.25C15.027 17.7473 14.8295 18.2242 14.4778 18.5758C14.1262 18.9275 13.6493 19.125 13.152 19.125H12.7234C12.2261 19.125 11.7492 18.9275 11.3976 18.5758C11.0459 18.2242 10.8484 17.7473 10.8484 17.25V17.25Z" fill="#66253C"/>
<path fill-rule="evenodd" clip-rule="evenodd" d="M13.7831 19.0163C13.5805 19.0885 13.367 19.1253 13.152 19.125H12.7234C12.2391 19.125 11.7735 18.9376 11.4243 18.6021C11.0751 18.2666 10.8692 17.8089 10.8499 17.325C11.1364 17.2178 11.5616 17.2301 11.9812 17.2425C12.1147 17.2463 12.2475 17.25 12.375 17.25C13.2037 17.25 13.875 17.8376 13.875 18.5625C13.875 18.7219 13.8424 18.8749 13.7831 19.0163V19.0163Z" fill="#B03E67"/>
<path d="M11.25 16.875H15V17.25C15 17.3495 14.9605 17.4448 14.8902 17.5152C14.8198 17.5855 14.7245 17.625 14.625 17.625H11.625C11.5255 17.625 11.4302 17.5855 11.3598 17.5152C11.2895 17.4448 11.25 17.3495 11.25 17.25V16.875Z" fill="white"/>
<path d="M12.375 14.0625C12.375 13.7518 12.1232 13.5 11.8125 13.5C11.5018 13.5 11.25 13.7518 11.25 14.0625V14.4375C11.25 14.7482 11.5018 15 11.8125 15C12.1232 15 12.375 14.7482 12.375 14.4375V14.0625Z" fill="#1B0B47"/>
<path d="M16.125 14.0625C16.125 13.7518 15.8732 13.5 15.5625 13.5C15.2518 13.5 15 13.7518 15 14.0625V14.4375C15 14.7482 15.2518 15 15.5625 15C15.8732 15 16.125 14.7482 16.125 14.4375V14.0625Z" fill="#1B0B47"/>
<path d="M10.3125 14.625H9.5625C9.25184 14.625 9 14.8768 9 15.1875C9 15.4982 9.25184 15.75 9.5625 15.75H10.3125C10.6232 15.75 10.875 15.4982 10.875 15.1875C10.875 14.8768 10.6232 14.625 10.3125 14.625Z" fill="#FF859B"/>
<path d="M17.0625 14.625H16.6875C16.3768 14.625 16.125 14.8768 16.125 15.1875C16.125 15.4982 16.3768 15.75 16.6875 15.75H17.0625C17.3732 15.75 17.625 15.4982 17.625 15.1875C17.625 14.8768 17.3732 14.625 17.0625 14.625Z" fill="#FF859B"/>
</g>
<defs>
<clipPath id="clip0_278_7">
<rect width="24" height="24" rx="12" fill="white"/>
</clipPath>
</defs>
</svg>
