<svg width="24" height="24" viewBox="0 0 24 24" fill="none" xmlns="http://www.w3.org/2000/svg">
<g clip-path="url(#clip0_278_29)">
<path d="M24 12C24 5.37258 18.6274 0 12 0C5.37258 0 0 5.37258 0 12C0 18.6274 5.37258 24 12 24C18.6274 24 24 18.6274 24 12Z" fill="#7E8FE7"/>
<path d="M6.75 15.75C7.78553 15.75 8.625 14.9105 8.625 13.875C8.625 12.8395 7.78553 12 6.75 12C5.71447 12 4.875 12.8395 4.875 13.875C4.875 14.9105 5.71447 15.75 6.75 15.75Z" fill="#F0BD70"/>
<path d="M6.75 15.375H13.125V24.7013C13.125 24.7013 11.7589 25.5 9.9375 25.5C8.11613 25.5 6.75 24.1961 6.75 24.1961V15.375Z" fill="#F0BD70"/>
<path d="M13.0542 19.917C13.0542 21.9364 12.728 21.7451 10.6043 21.7451C8.48071 21.7451 7.50084 20.1082 7.50084 18.0889C7.50084 16.0699 7.42022 14.25 9.13397 14.25C13.9801 14.4285 13.0542 17.8976 13.0542 19.917Z" fill="#E9B05B"/>
<path d="M17.2072 13.5375C17.2072 16.8832 16.6874 20.9974 12.5624 20.9974C8.43741 20.9974 6.53541 16.8832 6.53541 13.5375C5.62491 9.5625 5.81241 4.875 11.9999 4.875C18.1874 4.875 17.2072 10.1914 17.2072 13.5375V13.5375Z" fill="#FFCB7E"/>
<path d="M14.25 15.375H13.875C13.6679 15.375 13.5 15.5429 13.5 15.75C13.5 15.9571 13.6679 16.125 13.875 16.125H14.25C14.4571 16.125 14.625 15.9571 14.625 15.75C14.625 15.5429 14.4571 15.375 14.25 15.375Z" fill="#F0BD70"/>
<path d="M14.25 22.5H6C4.13604 22.5 2.625 24.011 2.625 25.875V27.75C2.625 29.614 4.13604 31.125 6 31.125H14.25C16.114 31.125 17.625 29.614 17.625 27.75V25.875C17.625 24.011 16.114 22.5 14.25 22.5Z" fill="#FF4DD8"/>
<path d="M6.375 21.75H13.5V22.875C13.5 22.875 11.625 23.25 9.9375 23.25C8.25 23.25 6.375 22.875 6.375 22.875V21.75Z" fill="#FF4DD8"/>
<path d="M6.375 21.75H13.5V22.5C13.5 22.5 12.375 23.0625 9.9375 23.0625C7.5 23.0625 6.375 22.5 6.375 22.5V21.75Z" fill="#D2499B"/>
<path d="M6.1875 22.125C6.1875 21.9261 6.26652 21.7353 6.40717 21.5947C6.54782 21.454 6.73859 21.375 6.9375 21.375H12.9375C13.1364 21.375 13.3272 21.454 13.4678 21.5947C13.6085 21.7353 13.6875 21.9261 13.6875 22.125C13.6875 22.125 11.8125 22.5 9.9375 22.5C8.0625 22.5 6.1875 22.125 6.1875 22.125Z" fill="#FF4DD8"/>
<path d="M8.25001 10.5C8.01414 11.625 8.62501 13.1179 8.62501 13.4036C8.62501 13.6894 7.15089 14.538 6.75001 14.8125C6.34914 15.087 6.18751 12.1875 6.18751 12.1875C5.06251 12.1875 4.87501 14.25 4.87501 14.25C4.87501 14.25 4.03351 13.9725 3.75001 12.5625C3.55876 11.61 3.86214 9.52915 3.93751 9.00002C4.12501 7.68752 4.31251 4.68752 6.75001 3.18752C9.18751 1.68752 15.375 1.68752 16.875 2.06252C20.5853 2.9899 21.0818 8.05727 19.875 9.75002C18 11.8125 12.75 9.37502 11.0625 9.37502C9.37501 9.37502 8.48626 9.37502 8.25001 10.5Z" fill="#AD3A20"/>
<path d="M10.8484 17.25C10.8484 17.1505 10.8879 17.0552 10.9582 16.9848C11.0285 16.9145 11.1239 16.875 11.2234 16.875H14.652C14.7515 16.875 14.8469 16.9145 14.9172 16.9848C14.9875 17.0552 15.027 17.1505 15.027 17.25C15.027 17.7473 14.8295 18.2242 14.4778 18.5758C14.1262 18.9275 13.6493 19.125 13.152 19.125H12.7234C12.2261 19.125 11.7492 18.9275 11.3976 18.5758C11.0459 18.2242 10.8484 17.7473 10.8484 17.25V17.25Z" fill="#66253C"/>
<path fill-rule="evenodd" clip-rule="evenodd" d="M13.7831 19.0163C13.5805 19.0885 13.367 19.1253 13.152 19.125H12.7234C12.2391 19.125 11.7735 18.9376 11.4243 18.6021C11.0751 18.2666 10.8692 17.8089 10.8499 17.325C11.1364 17.2178 11.5616 17.2301 11.9812 17.2425C12.1147 17.2463 12.2475 17.25 12.375 17.25C13.2037 17.25 13.875 17.8376 13.875 18.5625C13.875 18.7219 13.8424 18.8749 13.7831 19.0163V19.0163Z" fill="#B03E67"/>
<path d="M11.25 16.875H15V17.25C15 17.3495 14.9605 17.4448 14.8902 17.5152C14.8198 17.5855 14.7245 17.625 14.625 17.625H11.625C11.5255 17.625 11.4302 17.5855 11.3598 17.5152C11.2895 17.4448 11.25 17.3495 11.25 17.25V16.875Z" fill="white"/>
<path d="M12 16.9875C12 16.9577 12.0119 16.929 12.033 16.908C12.054 16.8869 12.0827 16.875 12.1125 16.875H12.6375C12.6673 16.875 12.696 16.8869 12.717 16.908C12.7381 16.929 12.75 16.9577 12.75 16.9875V17.8875C12.75 17.9173 12.7381 17.946 12.717 17.967C12.696 17.9881 12.6673 18 12.6375 18H12.1125C12.0827 18 12.054 17.9881 12.033 17.967C12.0119 17.946 12 17.9173 12 17.8875V16.9875V16.9875Z" fill="#B03E67"/>
<path d="M16.125 14.0625C16.125 14.2117 16.0657 14.3548 15.9602 14.4602C15.8548 14.5657 15.7117 14.625 15.5625 14.625C15.4133 14.625 15.2702 14.5657 15.1648 14.4602C15.0593 14.3548 15 14.2117 15 14.0625V13.6024C15 13.5461 15.0457 13.5 15.1024 13.5H16.0226C16.0789 13.5 16.125 13.5457 16.125 13.6024V14.0625V14.0625ZM12.375 14.0625C12.375 14.2117 12.3157 14.3548 12.2102 14.4602C12.1048 14.5657 11.9617 14.625 11.8125 14.625C11.6633 14.625 11.5202 14.5657 11.4148 14.4602C11.3093 14.3548 11.25 14.2117 11.25 14.0625V13.6024C11.25 13.5461 11.2958 13.5 11.3524 13.5H12.2726C12.3289 13.5 12.375 13.5457 12.375 13.6024V14.0625Z" fill="#1B0B47"/>
<path d="M14.8125 13.6875H16.3125M11.0625 13.6875H12.5625H11.0625Z" stroke="#1B0B47" stroke-linecap="round"/>
<path d="M10.5 17.25C10.5 16.9516 10.6185 16.6655 10.8295 16.4545C11.0405 16.2435 11.3266 16.125 11.625 16.125H15C15.2984 16.125 15.5845 16.2435 15.7955 16.4545C16.0065 16.6655 16.125 16.9516 16.125 17.25H10.5Z" fill="#AD3A20"/>
</g>
<defs>
<clipPath id="clip0_278_29">
<rect width="24" height="24" rx="12" fill="white"/>
</clipPath>
</defs>
</svg>
