<svg width="24" height="24" viewBox="0 0 24 24" fill="none" xmlns="http://www.w3.org/2000/svg">
<g clip-path="url(#clip0_278_140)">
<path d="M24 12C24 5.37258 18.6274 0 12 0C5.37258 0 0 5.37258 0 12C0 18.6274 5.37258 24 12 24C18.6274 24 24 18.6274 24 12Z" fill="#7E8FE7"/>
<path d="M6.75 15.75C7.78553 15.75 8.625 14.9105 8.625 13.875C8.625 12.8395 7.78553 12 6.75 12C5.71447 12 4.875 12.8395 4.875 13.875C4.875 14.9105 5.71447 15.75 6.75 15.75Z" fill="#68463C"/>
<path d="M6.75 15.375H13.125V24.7013C13.125 24.7013 11.7589 25.5 9.9375 25.5C8.11613 25.5 6.75 24.1961 6.75 24.1961V15.375Z" fill="#68463C"/>
<path d="M13.0542 19.917C13.0542 21.9364 12.728 21.7451 10.6043 21.7451C8.48071 21.7451 7.50084 20.1082 7.50084 18.0889C7.50084 16.0699 7.42022 14.25 9.13397 14.25C13.9801 14.4285 13.0542 17.8976 13.0542 19.917Z" fill="#553329"/>
<path d="M17.2072 13.5375C17.2072 16.8832 16.6874 20.9974 12.5624 20.9974C8.43741 20.9974 6.53541 16.8832 6.53541 13.5375C5.62491 9.5625 5.81241 4.875 11.9999 4.875C18.1874 4.875 17.2072 10.1914 17.2072 13.5375V13.5375Z" fill="#836055"/>
<path d="M14.25 15.375H13.875C13.6679 15.375 13.5 15.5429 13.5 15.75C13.5 15.9571 13.6679 16.125 13.875 16.125H14.25C14.4571 16.125 14.625 15.9571 14.625 15.75C14.625 15.5429 14.4571 15.375 14.25 15.375Z" fill="#68463C"/>
<path d="M14.25 22.5H6C4.13604 22.5 2.625 24.011 2.625 25.875V27.75C2.625 29.614 4.13604 31.125 6 31.125H14.25C16.114 31.125 17.625 29.614 17.625 27.75V25.875C17.625 24.011 16.114 22.5 14.25 22.5Z" fill="#FF4DD8"/>
<path fill-rule="evenodd" clip-rule="evenodd" d="M10.5443 10.299C13.4678 10.7272 18.5993 11.4787 19.125 6.74997C19.5 3.37497 14.4375 -0.562525 9 2.99997C5.58375 3.50622 4.72913 6.10422 4.5345 8.34522C4.2711 8.62333 4.12452 8.99193 4.125 9.37497C4.125 9.57372 4.16363 9.76385 4.23375 9.93747C4.16363 10.1111 4.125 10.3012 4.125 10.5C4.125 10.9147 4.29338 11.2901 4.56525 11.5612C4.50234 11.7675 4.48465 11.9849 4.51336 12.1986C4.54208 12.4123 4.61654 12.6173 4.73166 12.7996C4.84678 12.982 4.99986 13.1373 5.18046 13.2551C5.36107 13.373 5.56495 13.4505 5.77821 13.4823C5.99148 13.5142 6.20911 13.4997 6.41627 13.4399C6.62344 13.3801 6.81526 13.2763 6.97868 13.1356C7.14209 12.9949 7.27325 12.8206 7.36321 12.6246C7.45318 12.4287 7.49984 12.2156 7.5 12C7.72888 12 7.95473 11.9477 8.16025 11.8469C8.36578 11.7462 8.54553 11.5998 8.68575 11.4189C8.82596 11.238 8.92292 11.0274 8.9692 10.8033C9.01548 10.5791 9.00986 10.3474 8.95275 10.1257C8.9685 10.125 8.98425 10.125 9 10.125C9.357 10.125 9.89625 10.2037 10.5443 10.299V10.299Z" fill="#1B0B47"/>
<path d="M10.8484 17.25C10.8484 17.1505 10.8879 17.0552 10.9582 16.9848C11.0285 16.9145 11.1239 16.875 11.2234 16.875H14.652C14.7515 16.875 14.8469 16.9145 14.9172 16.9848C14.9875 17.0552 15.027 17.1505 15.027 17.25C15.027 17.7473 14.8295 18.2242 14.4778 18.5758C14.1262 18.9275 13.6493 19.125 13.152 19.125H12.7234C12.2261 19.125 11.7492 18.9275 11.3976 18.5758C11.0459 18.2242 10.8484 17.7473 10.8484 17.25V17.25Z" fill="#66253C"/>
<path fill-rule="evenodd" clip-rule="evenodd" d="M13.7831 19.0163C13.5805 19.0885 13.367 19.1253 13.152 19.125H12.7234C12.2391 19.125 11.7735 18.9376 11.4243 18.6021C11.0751 18.2666 10.8692 17.8089 10.8499 17.325C11.1364 17.2178 11.5616 17.2301 11.9812 17.2425C12.1147 17.2463 12.2475 17.25 12.375 17.25C13.2037 17.25 13.875 17.8376 13.875 18.5625C13.875 18.7219 13.8424 18.8749 13.7831 19.0163V19.0163Z" fill="#B03E67"/>
<path d="M11.25 16.875H15V17.25C15 17.3495 14.9605 17.4448 14.8902 17.5152C14.8198 17.5855 14.7245 17.625 14.625 17.625H11.625C11.5255 17.625 11.4302 17.5855 11.3598 17.5152C11.2895 17.4448 11.25 17.3495 11.25 17.25V16.875Z" fill="white"/>
<path d="M12.375 14.0625C12.375 13.7518 12.1232 13.5 11.8125 13.5C11.5018 13.5 11.25 13.7518 11.25 14.0625V14.4375C11.25 14.7482 11.5018 15 11.8125 15C12.1232 15 12.375 14.7482 12.375 14.4375V14.0625Z" fill="#1B0B47"/>
<path d="M16.125 14.0625C16.125 13.7518 15.8732 13.5 15.5625 13.5C15.2518 13.5 15 13.7518 15 14.0625V14.4375C15 14.7482 15.2518 15 15.5625 15C15.8732 15 16.125 14.7482 16.125 14.4375V14.0625Z" fill="#1B0B47"/>
</g>
<defs>
<clipPath id="clip0_278_140">
<rect width="24" height="24" rx="12" fill="white"/>
</clipPath>
</defs>
</svg>
