<svg width="24" height="24" viewBox="0 0 24 24" fill="none" xmlns="http://www.w3.org/2000/svg">
<g clip-path="url(#clip0_278_99)">
<path d="M24 12C24 5.37258 18.6274 0 12 0C5.37258 0 0 5.37258 0 12C0 18.6274 5.37258 24 12 24C18.6274 24 24 18.6274 24 12Z" fill="#7E8FE7"/>
<path d="M6.75 15.75C7.78553 15.75 8.625 14.9105 8.625 13.875C8.625 12.8395 7.78553 12 6.75 12C5.71447 12 4.875 12.8395 4.875 13.875C4.875 14.9105 5.71447 15.75 6.75 15.75Z" fill="#EAC0B3"/>
<path d="M6.75 15.375H13.125V24.7013C13.125 24.7013 11.7589 25.5 9.9375 25.5C8.11613 25.5 6.75 24.1961 6.75 24.1961V15.375Z" fill="#EAC0B3"/>
<path d="M13.1251 20.2005C13.1251 22.3207 12.7943 22.1197 10.6437 22.1197C8.4931 22.1197 7.50085 20.4011 7.50085 18.2809C7.50085 16.1606 7.4191 14.25 9.1546 14.25C14.0626 14.4375 13.1251 18.0802 13.1251 20.2005Z" fill="#C99688"/>
<path d="M17.2072 13.5375C17.2072 16.8832 18.5894 20.9974 12.5624 20.9974C6.53541 20.9974 6.53541 16.8832 6.53541 13.5375C5.62491 9.5625 5.81241 4.875 11.9999 4.875C18.1874 4.875 17.2072 10.1914 17.2072 13.5375V13.5375Z" fill="#F5D0C5"/>
<path d="M14.25 15.375H13.875C13.6679 15.375 13.5 15.5429 13.5 15.75C13.5 15.9571 13.6679 16.125 13.875 16.125H14.25C14.4571 16.125 14.625 15.9571 14.625 15.75C14.625 15.5429 14.4571 15.375 14.25 15.375Z" fill="#EAC0B3"/>
<path d="M14.25 22.5H6C4.13604 22.5 2.625 24.011 2.625 25.875V27.75C2.625 29.614 4.13604 31.125 6 31.125H14.25C16.114 31.125 17.625 29.614 17.625 27.75V25.875C17.625 24.011 16.114 22.5 14.25 22.5Z" fill="#E05A33"/>
<path fill-rule="evenodd" clip-rule="evenodd" d="M9.00003 9.375C9.00003 9.57375 8.9614 9.76387 8.89128 9.9375C8.98341 10.1652 9.01818 10.4121 8.99255 10.6565C8.96692 10.9008 8.88166 11.1351 8.74427 11.3388C8.60688 11.5425 8.42157 11.7093 8.20461 11.8246C7.98766 11.9399 7.74571 12.0001 7.50003 12C7.50003 12.3978 7.34199 12.7794 7.06069 13.0607C6.77938 13.342 6.39785 13.5 6.00003 13.5C5.6022 13.5 5.22067 13.342 4.93937 13.0607C4.65806 12.7794 4.50003 12.3978 4.50003 12C4.50003 11.6077 4.5244 10.9567 4.63803 10.3796C4.51634 10.1167 4.47338 9.82425 4.51433 9.53748C4.55528 9.25071 4.67839 8.98193 4.86879 8.76362C5.05919 8.5453 5.30873 8.38679 5.58726 8.30722C5.8658 8.22765 6.16141 8.23044 6.4384 8.31525C6.64807 8.10519 6.91535 7.96206 7.2064 7.90396C7.49745 7.84586 7.7992 7.87541 8.07345 7.98887C8.3477 8.10233 8.58212 8.29459 8.74706 8.54134C8.912 8.78808 9.00004 9.0782 9.00003 9.375ZM17.1934 12.7099C17.4037 12.6599 17.6007 12.5651 17.7709 12.4319C17.9412 12.2988 18.0806 12.1304 18.1798 11.9384C18.279 11.7464 18.3355 11.5352 18.3455 11.3193C18.3555 11.1034 18.3188 10.8879 18.2378 10.6875C18.3231 10.4767 18.3593 10.2493 18.3438 10.0224C18.3283 9.79558 18.2614 9.57522 18.1482 9.37802C18.035 9.18082 17.8784 9.01194 17.6903 8.88415C17.5022 8.75636 17.2876 8.673 17.0625 8.64037C17.2849 9.81787 17.2433 11.1195 17.2058 12.3056L17.1934 12.7099Z" fill="#1B0B47"/>
<path d="M10.8484 17.25C10.8484 17.1505 10.8879 17.0552 10.9582 16.9848C11.0285 16.9145 11.1239 16.875 11.2234 16.875H14.652C14.7515 16.875 14.8469 16.9145 14.9172 16.9848C14.9875 17.0552 15.027 17.1505 15.027 17.25C15.027 17.7473 14.8295 18.2242 14.4778 18.5758C14.1262 18.9275 13.6493 19.125 13.152 19.125H12.7234C12.2261 19.125 11.7492 18.9275 11.3976 18.5758C11.0459 18.2242 10.8484 17.7473 10.8484 17.25V17.25Z" fill="#66253C"/>
<path fill-rule="evenodd" clip-rule="evenodd" d="M13.7831 19.0163C13.5805 19.0885 13.367 19.1253 13.152 19.125H12.7234C12.2391 19.125 11.7735 18.9376 11.4243 18.6021C11.0751 18.2666 10.8692 17.8089 10.8499 17.325C11.1364 17.2178 11.5616 17.2301 11.9812 17.2425C12.1147 17.2463 12.2475 17.25 12.375 17.25C13.2037 17.25 13.875 17.8376 13.875 18.5625C13.875 18.7219 13.8424 18.8749 13.7831 19.0163V19.0163Z" fill="#B03E67"/>
<path d="M11.25 16.875H15V17.25C15 17.3495 14.9605 17.4448 14.8902 17.5152C14.8198 17.5855 14.7245 17.625 14.625 17.625H11.625C11.5255 17.625 11.4302 17.5855 11.3598 17.5152C11.2895 17.4448 11.25 17.3495 11.25 17.25V16.875Z" fill="white"/>
<path d="M12 16.9875C12 16.9577 12.0119 16.929 12.033 16.908C12.054 16.8869 12.0827 16.875 12.1125 16.875H12.6375C12.6673 16.875 12.696 16.8869 12.717 16.908C12.7381 16.929 12.75 16.9577 12.75 16.9875V17.8875C12.75 17.9173 12.7381 17.946 12.717 17.967C12.696 17.9881 12.6673 18 12.6375 18H12.1125C12.0827 18 12.054 17.9881 12.033 17.967C12.0119 17.946 12 17.9173 12 17.8875V16.9875V16.9875Z" fill="#B03E67"/>
<path d="M12.375 14.0625C12.375 13.7518 12.1232 13.5 11.8125 13.5C11.5018 13.5 11.25 13.7518 11.25 14.0625V14.4375C11.25 14.7482 11.5018 15 11.8125 15C12.1232 15 12.375 14.7482 12.375 14.4375V14.0625Z" fill="#1B0B47"/>
<path d="M16.125 14.0625C16.125 13.7518 15.8732 13.5 15.5625 13.5C15.2518 13.5 15 13.7518 15 14.0625V14.4375C15 14.7482 15.2518 15 15.5625 15C15.8732 15 16.125 14.7482 16.125 14.4375V14.0625Z" fill="#1B0B47"/>
<path fill-rule="evenodd" clip-rule="evenodd" d="M14.0625 16.125C11.625 16.6875 9.9375 16.875 9.9375 16.875C9.9375 16.875 10.3125 17.8125 11.25 17.625C12 17.475 13.5 17.1251 14.0625 16.875V16.125ZM14.25 16.125C16.5 16.5 18 16.7835 18 16.7835C18 16.7835 17.5804 17.6021 16.6875 17.4375L16.5675 17.4154C15.846 17.283 14.7563 17.0824 14.25 16.875V16.125Z" fill="#1B0B47"/>
</g>
<defs>
<clipPath id="clip0_278_99">
<rect width="24" height="24" rx="12" fill="white"/>
</clipPath>
</defs>
</svg>
