<svg width="24" height="26" viewBox="0 0 24 26" fill="none" xmlns="http://www.w3.org/2000/svg">
<mask id="mask0_1_524" style="mask-type:alpha" maskUnits="userSpaceOnUse" x="5" y="5" width="15" height="16">
<path d="M18.0002 14.0171H13.0002V19.4083C13.0002 20.0013 12.5502 20.4865 12.0002 20.4865C11.4502 20.4865 11.0002 20.0013 11.0002 19.4083V14.0171H6.00024C5.45024 14.0171 5.00024 13.5319 5.00024 12.9389C5.00024 12.3458 5.45024 11.8606 6.00024 11.8606H11.0002V6.46943C11.0002 5.8764 11.4502 5.39119 12.0002 5.39119C12.5502 5.39119 13.0002 5.8764 13.0002 6.46943V11.8606H18.0002C18.5502 11.8606 19.0002 12.3458 19.0002 12.9389C19.0002 13.5319 18.5502 14.0171 18.0002 14.0171Z" fill="black"/>
</mask>
<g mask="url(#mask0_1_524)">
<rect x="0.000244141" width="24" height="25.8777" fill="white"/>
</g>
</svg>
