<svg width="38" height="38" viewBox="0 0 38 38" fill="none" xmlns="http://www.w3.org/2000/svg">
<path d="M17.3372 30.9068C17.5641 31.1209 17.8644 31.2399 18.1764 31.2393C18.4872 31.242 18.7852 31.1159 18.9997 30.8909C19.2261 30.6704 19.3537 30.3678 19.3537 30.0518C19.3537 29.7358 19.2261 29.4331 18.9997 29.2126L9.97464 20.1875H30.9067C31.5626 20.1875 32.0942 19.6558 32.0942 19C32.0942 18.3442 31.5626 17.8125 30.9067 17.8125H9.97117L19.0156 8.7401C19.2419 8.51956 19.3696 8.21695 19.3696 7.90093C19.3696 7.58492 19.2419 7.2823 19.0156 7.06177C18.5519 6.59871 17.8009 6.59871 17.3372 7.06177L6.2539 18.1451C5.79085 18.6087 5.79085 19.3598 6.2539 19.8234L17.3372 30.9068Z" fill="black"/>
</svg>
