<svg width="24" height="24" viewBox="0 0 24 24" fill="none" xmlns="http://www.w3.org/2000/svg">
<g clip-path="url(#clip0_702_387)">
<path d="M24 12C24 5.37258 18.6274 0 12 0C5.37258 0 0 5.37258 0 12C0 18.6274 5.37258 24 12 24C18.6274 24 24 18.6274 24 12Z" fill="#7E8FE7"/>
<path d="M6.75 15.75C7.78553 15.75 8.625 14.9105 8.625 13.875C8.625 12.8395 7.78553 12 6.75 12C5.71447 12 4.875 12.8395 4.875 13.875C4.875 14.9105 5.71447 15.75 6.75 15.75Z" fill="#EAC0B3"/>
<path d="M6.75 15.375H13.125V24.7013C13.125 24.7013 11.7589 25.5 9.9375 25.5C8.11613 25.5 6.75 24.1961 6.75 24.1961V15.375Z" fill="#EAC0B3"/>
<path d="M13.125 20.2005C13.125 22.3208 11.8125 22.5 10.6436 22.1198C9.47512 21.7403 7.125 18.4328 7.125 16.3125C7.125 14.1923 7.419 14.25 9.15488 14.25C14.0625 14.4375 13.125 18.0803 13.125 20.2005Z" fill="#553329"/>
<path d="M17.2072 13.5375C17.2072 16.8832 15.7492 20.625 13.3117 21.1875C9.74916 20.8125 6.53541 16.8832 6.53541 13.5375C5.62491 9.5625 5.81241 4.875 11.9999 4.875C18.1874 4.875 17.2072 10.1914 17.2072 13.5375V13.5375Z" fill="#EAC0B3"/>
<path d="M14.25 15.375H13.875C13.6679 15.375 13.5 15.5429 13.5 15.75C13.5 15.9571 13.6679 16.125 13.875 16.125H14.25C14.4571 16.125 14.625 15.9571 14.625 15.75C14.625 15.5429 14.4571 15.375 14.25 15.375Z" fill="#68463C"/>
<path d="M14.25 22.5H6C4.13604 22.5 2.625 24.011 2.625 25.875V27.75C2.625 29.614 4.13604 31.125 6 31.125H14.25C16.114 31.125 17.625 29.614 17.625 27.75V25.875C17.625 24.011 16.114 22.5 14.25 22.5Z" fill="#B03E67"/>
<path d="M-0.000439078 3.74924C2.99844 0.750739 4.87494 4.87461 4.87494 4.87461L4.12419 7.87461C4.12419 7.87461 3.37419 8.81211 4.12419 11.6246C4.87419 14.4371 3.18669 15.9371 3.18669 15.9371C3.18669 15.9371 1.87419 16.875 0.749186 16.125C-0.375814 15.375 -0.524689 14.6542 -0.375814 13.3125C-0.188314 11.625 0.374186 12.1867 0.374186 10.4992C0.374186 8.81174 -2.99969 6.74774 -0.00081405 3.74924H-0.000439078Z" fill="#FFCB7E"/>
<path d="M4.88618 4.94287L6.95168 5.83612L5.61218 8.93362L3.54706 8.04112C3.54706 8.04112 3.18706 7.3125 3.74956 6.18787C4.31093 5.06287 4.88656 4.94287 4.88656 4.94287H4.88618Z" fill="#FF6C98"/>
<path fill-rule="evenodd" clip-rule="evenodd" d="M6.7499 15.375L6.25377 12.0664C5.81564 12.1861 5.43588 12.4609 5.18506 12.8396C4.93423 13.2183 4.82939 13.6751 4.89002 14.1253C4.95065 14.5754 5.17262 14.9883 5.51469 15.2871C5.85677 15.5859 6.29569 15.7504 6.7499 15.75V18.8625C6.15547 18.3351 5.63983 17.7252 5.21877 17.0512C4.58127 16.0372 4.13577 14.8747 3.91302 13.6414C3.6904 12.4046 3.69549 11.1376 3.92802 9.90262C4.16052 8.67149 4.6154 7.51387 5.26152 6.50699C5.90727 5.50049 6.72965 4.66837 7.67278 4.06724C8.61553 3.46574 9.65728 3.10912 10.7279 3.02137C10.9609 3.0023 11.1947 2.99604 11.4284 3.00262C12.4258 2.97623 13.4188 3.14502 14.3515 3.49949C15.2159 3.82949 16.0015 4.31287 16.663 4.92224C17.3164 5.52022 17.8419 6.24442 18.2077 7.05112C18.4858 7.66788 18.6602 8.32638 18.7237 8.99999H18.7499V10.6072C18.7499 10.6072 18.6265 10.6642 18.3757 10.7445V13.9275C18.3757 13.9275 18.3757 14.454 17.8132 14.8485C17.6182 14.9854 17.3564 15.0904 17.0969 15.1695C17.1704 14.6285 17.2076 14.0831 17.2083 13.5371C17.2083 13.1494 17.2214 12.735 17.2349 12.3056C17.2484 11.8864 17.2623 11.4525 17.2649 11.0152C16.5704 11.1424 15.6273 11.25 14.4232 11.25C11.4802 11.25 9.7499 10.6072 9.7499 10.6072V10.2326C9.4949 10.6316 9.2189 11.1139 8.9999 11.625C8.71865 12.2812 8.71865 12.954 8.71865 13.5191C8.71865 14.0846 8.71865 14.5429 8.4374 14.7697C7.8749 15.2235 6.7499 15.375 6.7499 15.375Z" fill="#FFCB7E"/>
<path d="M12.375 14.0625C12.375 13.7518 12.1232 13.5 11.8125 13.5C11.5018 13.5 11.25 13.7518 11.25 14.0625V14.4375C11.25 14.7482 11.5018 15 11.8125 15C12.1232 15 12.375 14.7482 12.375 14.4375V14.0625Z" fill="#1B0B47"/>
<path d="M16.125 14.0625C16.125 13.7518 15.8732 13.5 15.5625 13.5C15.2518 13.5 15 13.7518 15 14.0625V14.4375C15 14.7482 15.2518 15 15.5625 15C15.8732 15 16.125 14.7482 16.125 14.4375V14.0625Z" fill="#1B0B47"/>
<path d="M11.6009 15.2017C12.485 15.2017 13.2017 14.485 13.2017 13.6009C13.2017 12.7167 12.485 12 11.6009 12C10.7167 12 10 12.7167 10 13.6009C10 14.485 10.7167 15.2017 11.6009 15.2017Z" stroke="black"/>
<path d="M15.6009 15.2017C16.485 15.2017 17.2017 14.485 17.2017 13.6009C17.2017 12.7167 16.485 12 15.6009 12C14.7167 12 14 12.7167 14 13.6009C14 14.485 14.7167 15.2017 15.6009 15.2017Z" stroke="black"/>
<path d="M11 17.375C11 17.2755 11.0395 17.1802 11.1098 17.1098C11.1802 17.0395 11.2755 17 11.375 17H14.8036C14.9031 17 14.9985 17.0395 15.0688 17.1098C15.1391 17.1802 15.1786 17.2755 15.1786 17.375C15.1786 17.8723 14.9811 18.3492 14.6294 18.7008C14.2778 19.0525 13.8009 19.25 13.3036 19.25H12.875C12.3777 19.25 11.9008 19.0525 11.5492 18.7008C11.1975 18.3492 11 17.8723 11 17.375V17.375Z" fill="#66253C"/>
<path fill-rule="evenodd" clip-rule="evenodd" d="M13.9347 19.1413C13.7322 19.2135 13.5186 19.2503 13.3036 19.25H12.875C12.3907 19.25 11.9252 19.0626 11.5759 18.7271C11.2267 18.3916 11.0208 17.9339 11.0015 17.45C11.288 17.3428 11.7132 17.3551 12.1328 17.3675C12.2663 17.3713 12.3991 17.375 12.5266 17.375C13.3553 17.375 14.0266 17.9626 14.0266 18.6875C14.0266 18.8469 13.994 18.9999 13.9347 19.1413V19.1413Z" fill="#B03E67"/>
<path d="M11.4016 17H15.1516V17.375C15.1516 17.4745 15.1121 17.5698 15.0418 17.6402C14.9715 17.7105 14.8761 17.75 14.7766 17.75H11.7766C11.6772 17.75 11.5818 17.7105 11.5114 17.6402C11.4411 17.5698 11.4016 17.4745 11.4016 17.375V17Z" fill="white"/>
</g>
<defs>
<clipPath id="clip0_702_387">
<rect width="24" height="24" rx="12" fill="white"/>
</clipPath>
</defs>
</svg>
